<svg width="1024" height="1024" xmlns="http://www.w3.org/2000/svg">
  <polygon points="643,797 643,798 644,799 643,800 644,801 648,801 649,802 650,802 653,805 653,813 654,814 654,816 653,817 654,818 654,870 653,871 653,872 651,874 650,874 649,875 645,875 644,876 645,877 645,879 678,879 678,875 675,875 674,874 673,874 670,871 670,869 669,868 670,867 670,866 669,865 669,845 670,844 678,844 680,846 680,847 682,849 682,850 684,852 684,853 686,855 686,856 688,858 688,859 689,860 689,861 691,863 691,864 693,866 693,867 696,870 696,871 699,874 699,875 703,879 725,879 725,876 724,875 721,875 720,874 719,874 717,872 716,872 712,868 712,867 708,863 708,862 706,860 706,859 704,857 704,856 702,854 702,853 700,851 700,850 698,848 698,847 695,844 695,843 694,842 695,841 698,841 699,840 701,840 702,839 704,839 706,837 707,837 710,834 710,833 711,832 711,831 712,830 712,828 713,827 713,815 712,814 712,811 710,809 710,808 708,806 708,805 705,802 704,802 703,801 702,801 700,799 698,799 697,798 694,798 693,797" fill="#d4af37"/>
  <polygon points="445,797 445,799 444,800 444,807 443,808 443,815 442,816 442,817 445,817 446,818 447,817 447,815 448,814 448,812 449,811 449,810 454,805 455,805 456,804 457,804 458,803 471,803 472,804 472,871 468,875 463,875 463,879 496,879 496,877 497,876 497,875 492,875 488,871 488,865 487,864 487,804 488,803 500,803 501,804 503,804 509,810 509,811 510,812 510,813 511,814 511,815 512,816 512,818 513,817 516,817 516,811 515,810 515,803 514,802 514,797" fill="#d4af37"/>
  <polygon points="215,797 215,801 219,801 220,802 221,802 223,804 223,805 224,806 224,859 223,860 224,861 224,862 223,863 223,870 222,871 222,872 220,874 219,874 218,875 215,875 214,876 215,877 215,879 237,879 237,877 238,876 237,875 234,875 233,874 232,874 230,872 230,870 229,869 229,862 230,861 230,827 231,826 231,825 230,824 231,823 231,818 232,817 233,818 233,819 234,820 234,821 235,822 235,824 236,825 236,826 237,827 237,828 238,829 238,830 239,831 239,833 240,834 240,835 241,836 241,838 242,839 242,840 243,841 243,842 244,843 244,844 245,845 245,847 246,848 246,849 247,850 247,851 248,852 248,853 249,854 249,856 250,857 250,858 251,859 251,860 252,861 252,863 253,864 253,865 254,866 254,867 255,868 255,869 256,870 256,872 257,873 257,874 258,875 258,876 259,877 259,878 260,879 263,879 264,878 264,877 265,876 265,875 266,874 266,872 267,871 267,870 268,869 268,868 269,867 269,865 270,864 270,863 271,862 271,861 272,860 272,858 273,857 273,856 274,855 274,854 275,853 275,851 276,850 276,849 277,848 277,847 278,846 278,844 279,843 279,842 280,841 280,840 281,839 281,837 282,836 282,835 283,834 283,833 284,832 284,830 285,829 285,828 286,827 286,826 287,825 287,823 288,822 288,821 289,820 289,818 290,817 290,816 291,815 291,814 292,813 293,814 293,816 292,817 293,818 293,844 294,845 294,846 293,847 294,848 294,871 290,875 286,875 285,876 285,878 286,879 317,879 317,877 318,876 318,875 314,875 313,874 312,874 310,872 310,871 309,870 309,854 308,853 308,821 307,820 307,817 308,816 307,815 307,808 308,807 308,805 312,801 316,801 316,797 315,797 314,798 313,798 312,797 305,797 304,798 303,797 293,797 292,798 292,799 291,800 291,801 290,802 290,804 289,805 289,806 288,807 288,808 287,809 287,811 286,812 286,813 285,814 285,815 284,816 284,818 283,819 283,820 282,821 282,822 281,823 281,824 280,825 280,827 279,828 279,829 278,830 278,831 277,832 277,834 276,835 276,836 275,837 275,838 274,839 274,841 273,842 273,843 272,844 272,845 271,846 271,848 270,849 270,850 269,851 269,852 268,853 268,855 267,856 267,857 266,858 265,857 265,856 264,855 264,854 263,853 263,851 262,850 262,849 261,848 261,846 260,845 260,844 259,843 259,841 258,840 258,839 257,838 257,836 256,835 256,834 255,833 255,831 254,830 254,828 253,827 253,826 252,825 252,823 251,822 251,821 250,820 250,819 249,818 249,816 248,815 248,813 247,812 247,811 246,810 246,809 245,808 245,806 244,805 244,804 243,803 243,801 242,800 242,799 241,798 241,797" fill="#d4af37"/>
  <polygon points="766,796 765,797 762,797 761,798 759,798 758,799 757,799 756,800 755,800 749,806 749,807 748,808 748,809 747,810 747,812 746,813 746,824 747,825 747,827 748,828 748,829 750,831 750,832 753,835 754,835 757,838 758,838 759,839 760,839 762,841 763,841 764,842 765,842 766,843 767,843 768,844 769,844 770,845 771,845 772,846 773,846 774,847 775,847 776,848 777,848 779,850 780,850 786,856 786,857 787,858 787,860 788,861 788,864 787,865 787,867 785,869 785,870 784,871 783,871 781,873 780,873 779,874 777,874 776,875 765,875 764,874 762,874 761,873 760,873 759,872 758,872 757,871 756,871 753,868 753,867 751,865 751,864 750,863 750,862 749,861 749,858 748,857 748,854 744,854 743,855 744,856 744,866 745,867 745,874 746,875 748,875 749,876 750,876 751,877 752,877 753,878 755,878 756,879 759,879 760,880 765,880 766,881 776,881 777,880 781,880 782,879 785,879 786,878 787,878 788,877 789,877 790,876 791,876 798,869 798,868 799,867 799,866 801,864 801,861 802,860 802,853 801,852 801,850 800,849 800,848 799,847 799,846 797,844 797,843 796,842 795,842 792,839 791,839 790,838 789,838 787,836 786,836 785,835 784,835 783,834 782,834 781,833 780,833 779,832 777,832 775,830 774,830 773,829 772,829 771,828 770,828 768,826 767,826 761,820 761,819 760,818 760,810 761,809 761,808 766,803 767,803 768,802 771,802 772,801 777,801 778,802 782,802 783,803 785,803 787,805 788,805 789,806 789,807 791,809 791,810 792,811 792,812 793,813 793,817 797,817 797,805 796,804 796,800 794,800 793,799 791,799 790,798 788,798 787,797 783,797 782,796" fill="#d4af37"/>
  <polygon points="373,796 372,797 369,797 368,798 366,798 365,799 364,799 363,800 361,800 359,802 358,802 357,803 356,803 353,806 352,806 348,810 348,811 345,814 345,815 344,816 344,817 343,818 343,819 342,820 342,822 341,823 341,825 340,826 340,829 339,830 339,848 340,849 340,852 341,853 341,856 342,857 342,858 343,859 343,860 344,861 344,862 346,864 346,865 353,872 354,872 356,874 357,874 359,876 360,876 361,877 363,877 364,878 365,878 366,879 369,879 370,880 375,880 376,881 387,881 388,880 393,880 394,879 397,879 398,878 399,878 400,877 401,877 402,876 403,876 404,875 405,875 406,874 407,874 410,871 411,871 416,866 416,865 418,863 418,862 419,861 419,860 420,859 420,858 421,857 421,856 422,855 422,853 423,852 423,848 424,847 424,839 425,838 424,837 424,827 423,826 423,823 422,822 422,821 421,820 421,818 419,816 419,815 418,814 418,813 414,809 414,808 413,808 408,803 407,803 405,801 404,801 403,800 402,800 401,799 400,799 399,798 397,798 396,797 393,797 392,796" fill="#d4af37"/>
  <polygon points="580,795 579,796 569,796 568,797 566,797 565,798 563,798 562,799 561,799 560,800 559,800 558,801 557,801 555,803 554,803 545,812 545,813 543,815 543,816 542,817 542,818 541,819 541,820 540,821 540,823 539,824 539,827 538,828 538,850 539,851 539,853 540,854 540,856 541,857 541,859 543,861 543,862 545,864 545,865 552,872 553,872 555,874 556,874 558,876 559,876 560,877 562,877 563,878 564,878 565,879 568,879 569,880 574,880 575,881 586,881 587,880 591,880 592,879 595,879 596,878 598,878 599,877 600,877 601,876 602,876 603,875 604,875 605,874 606,874 616,864 616,863 617,862 617,861 618,860 618,859 619,858 619,857 620,856 620,854 621,853 621,851 622,850 622,846 623,845 623,830 622,829 622,825 621,824 621,822 620,821 620,819 619,818 619,817 618,816 618,815 616,813 616,812 608,804 607,804 605,802 604,802 603,801 602,801 601,800 600,800 599,799 598,799 597,798 595,798 594,797 591,797 590,796 582,796 581,795" fill="#d4af37"/>
  <polygon points="753,640 753,645 756,645 757,646 759,646 760,647 762,647 770,655 770,656 772,658 772,659 774,661 774,662 776,664 776,665 778,667 778,668 780,670 780,671 781,672 781,673 783,675 783,676 784,677 784,678 786,680 786,681 788,683 788,684 789,685 789,686 791,688 791,689 792,690 792,691 794,693 794,694 796,696 796,697 797,698 797,699 799,701 799,702 801,704 801,705 802,706 802,736 801,737 801,740 798,743 797,743 796,744 794,744 793,745 788,745 788,747 789,748 788,749 789,750 835,750 835,745 830,745 829,744 827,744 823,740 823,738 822,737 822,704 823,703 823,702 825,700 825,699 827,697 827,696 828,695 828,694 830,692 830,691 832,689 832,688 833,687 833,686 835,684 835,683 837,681 837,680 839,678 839,677 840,676 840,675 842,673 842,672 844,670 844,669 845,668 845,667 847,665 847,664 849,662 849,661 851,659 851,658 852,657 852,656 855,653 855,652 859,648 860,648 861,647 862,647 863,646 865,646 866,645 869,645 869,640 834,640 833,641 834,642 834,643 833,644 834,645 838,645 839,646 841,646 843,648 843,649 844,650 844,651 843,652 843,653 842,654 842,655 841,656 841,657 840,658 840,659 839,660 839,661 837,663 837,664 835,666 835,667 834,668 834,669 833,670 833,671 831,673 831,674 830,675 830,676 828,678 828,679 827,680 827,681 825,683 825,684 824,685 824,686 822,688 822,689 821,690 821,691 819,693 818,692 818,691 815,688 815,687 813,685 813,684 811,682 811,681 809,679 809,678 808,677 808,676 806,674 806,673 804,671 804,670 802,668 802,667 800,665 800,664 798,662 798,661 797,660 797,659 796,658 796,657 794,655 794,654 793,653 793,648 795,646 796,646 797,645 802,645 802,640" fill="#d4af37"/>
  <polygon points="516,640 516,644 517,645 521,645 522,646 524,646 527,649 527,650 528,651 528,702 529,703 529,705 528,706 529,707 529,708 528,709 529,710 529,721 530,722 530,725 531,726 531,728 532,729 532,730 533,731 533,732 534,733 534,734 537,737 537,738 539,740 540,740 544,744 545,744 546,745 547,745 549,747 551,747 552,748 553,748 554,749 556,749 557,750 560,750 561,751 565,751 566,752 584,752 585,751 588,751 589,750 592,750 593,749 595,749 596,748 597,748 598,747 599,747 600,746 601,746 603,744 604,744 612,736 612,735 614,733 614,732 615,731 615,730 616,729 616,727 617,726 617,724 618,723 618,715 619,714 618,713 619,712 619,653 620,652 620,650 624,646 625,646 626,645 629,645 630,644 631,644 631,640 596,640 596,644 597,645 602,645 603,646 604,646 608,650 608,651 609,652 609,656 610,657 610,712 609,713 609,720 608,721 608,724 607,725 607,726 606,727 606,728 605,729 605,730 603,732 603,733 599,737 598,737 596,739 595,739 594,740 593,740 592,741 590,741 589,742 584,742 583,743 575,743 574,742 570,742 569,741 567,741 566,740 564,740 563,739 562,739 560,737 559,737 555,733 555,732 553,730 553,729 552,728 552,727 551,726 551,725 550,724 550,722 549,721 549,716 548,715 548,667 549,666 548,665 548,662 549,661 548,660 549,659 549,652 550,651 550,650 554,646 555,646 556,645 560,645 561,644 562,644 562,640" fill="#d4af37"/>
  <polygon points="391,640 391,644 392,645 395,645 396,646 398,646 407,655 407,656 410,659 410,660 412,662 412,663 414,665 414,666 416,668 416,669 418,671 418,672 420,674 420,675 422,677 422,678 424,680 424,681 426,683 426,684 428,686 428,687 430,689 430,690 431,691 431,692 433,694 433,695 435,697 435,698 431,702 431,703 428,706 428,707 425,710 425,711 422,714 422,715 419,718 419,719 416,722 416,723 412,727 412,728 403,737 403,738 402,739 401,739 398,742 397,742 395,744 393,744 392,745 389,745 389,750 424,750 424,746 423,745 419,745 418,744 417,744 414,741 414,738 415,737 415,736 418,733 418,732 421,729 421,728 424,725 424,724 427,721 427,720 431,716 431,715 434,712 434,711 437,708 437,707 439,705 441,707 441,708 443,710 443,711 445,713 445,714 447,716 447,717 449,719 449,720 451,722 451,723 453,725 453,726 455,728 455,729 457,731 457,732 458,733 458,734 460,736 460,737 461,738 461,739 462,740 462,741 461,742 461,743 459,745 453,745 452,746 452,750 500,750 500,746 498,746 497,745 495,745 494,744 493,744 492,743 491,743 483,735 483,734 480,731 480,730 478,728 478,727 476,725 476,724 474,722 474,721 472,719 472,718 470,716 470,715 467,712 467,711 465,709 465,708 463,706 463,705 461,703 461,702 459,700 459,699 456,696 456,695 455,694 455,693 453,691 453,690 456,687 456,686 458,684 458,683 461,680 461,679 464,676 464,675 467,672 467,671 470,668 470,667 472,665 472,664 475,661 475,660 478,657 478,656 487,647 488,647 489,646 490,646 491,645 495,645 496,644 496,640 461,640 461,645 465,645 466,646 468,646 471,649 471,652 470,653 470,654 469,655 469,656 467,658 467,659 464,662 464,663 461,666 461,667 459,669 459,670 455,674 455,675 452,678 452,679 450,681 450,682 449,683 446,680 446,679 444,677 444,676 442,674 442,673 441,672 441,671 439,669 439,668 438,667 438,666 436,664 436,663 434,661 434,660 433,659 433,658 431,656 431,655 429,653 429,648 431,646 433,646 434,645 437,645 437,641 436,640" fill="#d4af37"/>
  <polygon points="258,640 258,644 259,645 263,645 264,646 265,646 266,647 267,647 270,650 270,652 271,653 271,717 272,718 272,722 273,723 273,726 274,727 274,728 275,729 275,730 276,731 276,732 277,733 277,734 279,736 279,737 284,742 285,742 287,744 288,744 290,746 291,746 292,747 293,747 294,748 295,748 296,749 298,749 299,750 302,750 303,751 307,751 308,752 326,752 327,751 331,751 332,750 335,750 336,749 337,749 338,748 340,748 341,747 342,747 343,746 344,746 346,744 347,744 354,737 354,736 356,734 356,733 357,732 357,730 358,729 358,728 359,727 359,724 360,723 360,719 361,718 361,656 362,655 362,651 363,650 363,649 365,647 366,647 367,646 368,646 369,645 372,645 373,644 374,644 374,640 337,640 337,644 338,645 342,645 343,646 345,646 346,647 347,647 349,649 349,650 350,651 350,652 351,653 351,656 352,657 352,711 351,712 351,721 350,722 350,725 349,726 349,727 348,728 348,729 346,731 346,732 341,737 340,737 338,739 337,739 336,740 335,740 334,741 332,741 331,742 327,742 326,743 317,743 316,742 312,742 311,741 309,741 308,740 307,740 306,739 305,739 304,738 303,738 297,732 297,731 295,729 295,728 294,727 294,726 293,725 293,723 292,722 292,719 291,718 291,656 292,655 292,652 293,651 293,650 296,647 297,647 298,646 299,646 300,645 303,645 304,644 305,644 305,640" fill="#d4af37"/>
  <polygon points="158,640 157,641 158,642 158,643 157,644 159,644 160,645 163,645 164,646 165,646 166,647 167,647 168,648 168,649 169,650 169,651 170,652 170,658 171,659 170,660 170,661 171,662 170,663 170,737 169,738 169,740 165,744 164,744 163,745 159,745 158,746 158,750 195,750 196,749 197,750 198,749 200,749 201,750 202,749 203,749 204,750 209,750 210,749 211,750 215,750 216,749 220,749 221,750 222,749 224,749 225,750 226,749 241,749 242,750 243,749 243,746 244,745 244,740 245,739 245,734 246,733 246,728 247,727 247,721 248,720 248,718 245,718 244,717 243,717 243,718 242,719 242,721 241,722 241,723 240,724 240,725 239,726 239,727 238,728 238,729 236,731 236,732 232,736 231,736 229,738 228,738 227,739 226,739 225,740 224,740 223,741 217,741 216,742 191,742 190,741 190,654 191,653 191,650 195,646 196,646 197,645 201,645 202,644 203,644 203,640 166,640 165,641 159,641" fill="#d4af37"/>
  <polygon points="700,639 699,640 649,640 649,644 650,644 651,645 654,645 655,646 657,646 661,650 661,653 662,654 662,738 661,739 661,740 657,744 656,744 655,745 650,745 649,746 649,749 650,750 693,750 694,749 693,748 693,747 694,746 693,745 689,745 688,744 687,744 686,743 685,743 684,742 684,741 683,740 683,739 682,738 682,702 683,701 695,701 697,703 697,704 698,705 698,706 700,708 700,709 701,710 701,711 703,713 703,714 705,716 705,717 707,719 707,720 708,721 708,722 710,724 710,725 711,726 711,727 713,729 713,730 715,732 715,733 717,735 717,736 719,738 719,739 722,742 722,743 725,746 725,747 728,750 758,750 759,749 759,746 758,745 754,745 753,744 752,744 751,743 749,743 746,740 745,740 740,735 740,734 737,731 737,730 734,727 734,726 732,724 732,723 730,721 730,720 729,719 729,718 727,716 727,715 726,714 726,713 724,711 724,710 722,708 722,707 721,706 721,705 719,703 719,702 717,700 717,699 718,698 721,698 722,697 724,697 725,696 726,696 727,695 728,695 729,694 730,694 733,691 734,691 735,690 735,689 738,686 738,685 739,684 739,683 740,682 740,681 741,680 741,678 742,677 742,664 741,663 741,660 740,659 740,658 739,657 739,656 737,654 737,653 732,648 731,648 728,645 727,645 726,644 725,644 724,643 722,643 721,642 718,642 717,641 714,641 713,640 702,640 701,639" fill="#d4af37"/>
  <polygon points="421,324 421,329 423,329 424,330 428,330 429,331 431,331 432,332 433,332 434,333 435,333 437,335 438,335 441,338 441,339 443,341 443,342 444,343 444,344 445,345 445,349 446,350 446,516 447,515 448,515 449,514 450,514 456,508 456,507 457,506 457,505 458,504 458,502 459,501 459,482 460,481 459,480 459,446 460,445 459,444 459,370 460,369 461,370 461,371 462,372 462,374 463,375 463,376 464,377 464,378 465,379 465,380 466,381 466,382 467,383 467,385 468,386 468,387 469,388 469,389 470,390 470,391 471,392 471,394 472,395 472,396 473,397 473,398 474,399 474,400 475,401 475,403 476,404 476,405 477,406 477,407 478,408 478,409 479,410 479,412 480,413 480,414 481,415 481,416 482,417 482,418 483,419 483,421 484,422 484,423 485,424 485,425 486,426 486,427 487,428 487,429 488,430 488,432 489,433 489,434 490,435 490,436 491,437 491,439 493,441 493,443 494,444 494,445 495,446 495,447 496,448 496,450 497,451 497,452 498,453 498,454 499,455 499,456 500,457 500,458 501,459 501,460 502,461 502,463 503,464 503,465 504,466 504,467 505,468 505,470 506,471 506,472 507,473 507,474 508,475 508,476 509,477 509,478 510,479 510,481 511,482 511,483 512,484 512,485 513,486 513,487 514,488 514,489 515,490 515,492 516,493 516,494 517,495 517,496 518,497 518,498 519,499 519,500 520,501 520,503 521,504 521,505 522,506 522,507 523,508 523,509 524,510 524,512 525,513 525,514 526,515 526,516 527,517 527,518 528,519 528,520 529,521 529,522 530,523 530,525 531,526 531,527 532,528 532,529 533,530 533,531 534,532 534,533 535,534 535,535 536,536 536,538 537,539 537,540 538,541 538,542 539,543 539,544 540,545 540,547 541,548 541,549 542,550 542,551 543,552 543,553 544,554 544,556 545,557 545,558 547,560 548,560 549,559 550,560 555,560 557,558 557,556 558,555 558,554 559,553 559,552 560,551 560,550 561,549 561,547 562,546 562,545 563,544 563,543 564,542 564,540 565,539 565,538 566,537 566,536 567,535 567,533 568,532 568,531 569,530 569,529 570,528 570,527 571,526 571,524 572,523 572,522 573,521 573,520 574,519 574,517 575,516 575,515 576,514 576,513 577,512 577,510 578,509 578,508 579,507 579,506 580,505 580,503 581,502 581,501 582,500 582,499 583,498 583,497 584,496 584,494 585,493 585,492 586,491 586,490 587,489 587,487 588,486 588,485 589,484 589,483 590,482 590,481 591,480 591,478 592,477 592,476 593,475 593,474 594,473 594,471 595,470 595,469 596,468 596,467 597,466 597,464 598,463 598,462 599,461 599,460 600,459 600,457 601,456 601,455 602,454 602,453 603,452 603,450 604,449 604,448 605,447 605,446 606,445 606,444 607,443 607,441 608,440 608,439 609,438 609,437 610,436 610,434 611,433 611,432 612,431 612,430 613,429 613,428 614,427 614,425 615,424 615,423 616,422 616,421 617,420 617,418 618,417 618,416 619,415 619,414 620,413 620,411 621,410 621,409 622,408 622,407 623,406 623,405 624,404 624,402 625,401 625,400 626,399 626,398 627,397 627,395 628,394 628,393 629,392 629,391 630,390 630,388 631,387 631,386 632,385 632,384 633,383 633,381 634,380 634,379 635,378 635,377 636,376 636,374 637,373 637,372 638,371 638,369 639,368 639,367 640,366 641,367 641,372 640,373 641,374 641,375 640,376 640,377 641,378 640,379 641,380 641,381 640,382 641,383 640,384 641,385 640,386 640,390 641,391 640,392 640,400 641,401 640,402 641,403 640,404 641,405 640,406 641,407 641,408 640,409 641,410 641,416 640,417 641,418 641,419 640,420 641,421 641,422 640,423 641,424 641,425 640,426 641,427 641,430 640,431 641,432 641,434 640,435 641,436 641,443 640,444 641,445 641,459 640,460 641,461 641,465 640,466 641,467 641,520 640,521 640,522 641,523 641,528 640,529 640,533 639,534 639,536 638,537 638,538 636,540 636,541 633,544 632,544 630,546 629,546 628,547 626,547 625,548 622,548 621,549 614,549 614,556 706,556 707,555 707,550 705,550 704,549 698,549 697,548 694,548 693,547 692,547 691,546 690,546 683,539 683,538 682,537 682,536 681,535 681,534 680,533 680,528 679,527 679,351 680,350 680,347 681,346 681,344 682,343 682,342 683,341 683,340 690,333 691,333 692,332 693,332 694,331 696,331 697,330 701,330 702,329 706,329 706,325 707,324 640,324 640,325 639,326 639,328 638,329 638,330 637,331 637,333 636,334 636,335 635,336 635,337 634,338 634,340 633,341 633,342 632,343 632,344 631,345 631,347 630,348 630,349 629,350 629,351 628,352 628,354 627,355 627,356 626,357 626,358 625,359 625,361 624,362 624,363 623,364 623,365 622,366 622,368 621,369 621,370 620,371 620,373 619,374 619,375 618,376 618,377 617,378 617,380 616,381 616,382 615,383 615,384 614,385 614,387 613,388 613,389 612,390 612,391 611,392 611,394 610,395 610,396 609,397 609,398 608,399 608,401 607,402 607,403 606,404 606,405 605,406 605,408 604,409 604,410 603,411 603,413 602,414 602,415 601,416 601,417 600,418 600,420 599,421 599,422 598,423 598,424 597,425 597,427 596,428 596,429 595,430 595,431 594,432 594,434 593,435 593,436 592,437 592,438 591,439 591,441 590,442 590,443 589,444 589,445 588,446 588,448 587,449 587,450 586,451 586,453 585,454 585,455 584,456 584,457 583,458 583,460 582,461 582,462 581,463 581,464 580,465 580,467 579,468 579,469 578,470 578,472 577,473 577,474 576,475 576,476 575,477 575,479 574,480 574,481 573,482 573,483 572,484 572,486 571,487 571,488 570,489 570,491 569,492 569,493 568,494 568,495 567,496 567,497 566,498 566,500 565,501 565,502 564,503 563,502 563,500 562,499 562,498 561,497 561,496 560,495 560,494 559,493 559,492 558,491 558,489 557,488 557,487 556,486 556,485 555,484 555,482 554,481 554,480 553,479 553,478 552,477 552,476 551,475 551,474 550,473 550,471 549,470 549,469 548,468 548,467 547,466 547,464 546,463 546,462 545,461 545,460 544,459 544,457 543,456 543,455 542,454 542,453 541,452 541,451 540,450 540,449 539,448 539,446 538,445 538,444 537,443 537,442 536,441 536,439 535,438 535,437 534,436 534,435 533,434 533,433 532,432 532,430 531,429 531,428 530,427 530,426 529,425 529,424 528,423 528,422 527,421 527,419 526,418 526,417 525,416 525,415 524,414 524,413 523,412 523,411 522,410 522,408 521,407 521,406 520,405 520,404 519,403 519,402 518,401 518,399 517,398 517,397 516,396 516,395 515,394 515,393 514,392 514,390 513,389 513,388 512,387 512,386 511,385 511,384 510,383 510,382 509,381 509,379 508,378 508,377 507,376 507,375 506,374 506,373 505,372 505,370 504,369 504,368 503,367 503,366 502,365 502,364 501,363 501,361 500,360 500,359 499,358 499,357 498,356 498,355 497,354 497,352 496,351 496,350 495,349 495,348 494,347 494,346 493,345 493,343 492,342 492,341 491,340 491,339 490,338 490,337 489,336 489,334 488,333 488,332 487,331 487,330 486,329 486,328 485,327 485,326 484,325 484,324" fill="#d4af37"/>
  <polygon points="311,307 311,314 312,313 314,313 315,314 319,314 320,315 323,315 324,316 325,316 326,317 327,317 328,318 329,318 332,321 333,321 334,322 334,323 337,326 337,327 338,328 338,329 339,330 339,332 340,333 340,338 341,339 341,516 340,517 340,523 339,524 339,526 338,527 338,528 337,529 337,530 336,531 336,532 329,539 328,539 327,540 325,540 324,541 322,541 321,542 316,542 315,543 311,543 311,544 312,545 312,550 480,550 480,547 481,546 481,542 482,541 482,538 483,537 483,533 484,532 484,528 485,527 485,523 486,522 486,519 487,518 487,514 488,513 488,509 489,508 489,505 490,504 490,500 491,499 491,495 492,494 492,491 493,490 493,486 494,485 494,484 485,484 485,487 484,488 484,490 483,491 483,492 482,493 482,495 481,496 481,497 480,498 480,499 478,501 478,502 477,503 477,504 475,506 475,507 471,511 471,512 459,524 458,524 456,526 455,526 454,527 453,527 452,528 450,528 449,529 447,529 446,530 441,530 440,531 435,531 434,532 426,532 425,533 381,533 380,532 380,339 381,338 381,334 382,333 382,331 383,330 383,329 384,328 384,327 385,326 385,325 392,318 393,318 394,317 395,317 396,316 397,316 398,315 400,315 401,314 407,314 408,313 411,313 411,307" fill="#d4af37"/>
  <polygon points="488,267 487,268 472,268 471,269 461,269 460,270 452,270 451,271 445,271 444,272 439,272 438,273 433,273 432,274 427,274 426,275 422,275 421,276 418,276 417,277 413,277 412,278 408,278 407,279 407,286 408,287 407,288 407,290 408,291 410,291 411,290 413,290 414,289 417,289 418,288 422,288 423,287 427,287 428,286 432,286 433,285 438,285 439,284 444,284 445,283 451,283 452,282 460,282 461,281 469,281 470,280 485,280 486,279 531,279 532,280 545,280 546,281 555,281 556,282 563,282 564,283 571,283 572,284 578,284 579,285 584,285 585,286 590,286 591,287 596,287 597,288 601,288 602,289 605,289 606,290 609,290 610,291 613,291 614,292 615,292 615,280 616,279 615,278 611,278 610,277 606,277 605,276 602,276 601,275 596,275 595,274 591,274 590,273 585,273 584,272 578,272 577,271 570,271 569,270 561,270 560,269 551,269 550,268 534,268 533,267 532,268 531,267" fill="#d4af37"/>
  <polygon points="508,134 507,135 506,135 505,136 504,136 501,139 501,140 500,141 500,143 499,144 499,149 500,150 500,152 506,158 508,158 509,159 509,163 508,164 508,168 507,169 507,173 506,174 506,177 505,178 505,181 504,182 504,184 503,185 503,188 502,189 502,191 501,192 501,194 500,195 500,197 499,198 499,199 498,200 498,202 497,203 497,204 496,205 496,206 495,207 495,208 494,209 494,210 493,211 493,212 492,213 492,214 489,217 489,218 485,222 484,222 483,223 482,223 481,224 474,224 473,223 472,223 471,222 470,222 467,219 466,219 460,213 460,212 456,208 456,207 453,204 453,203 451,201 451,200 449,198 449,197 448,196 448,195 447,194 447,193 446,192 446,191 447,190 448,190 450,188 450,187 451,186 451,185 452,184 452,179 451,178 451,177 450,176 450,175 449,174 448,174 447,173 446,173 445,172 439,172 438,173 437,173 434,176 434,177 433,178 433,180 432,181 432,183 433,184 433,186 437,190 438,190 439,191 442,191 443,192 443,208 442,209 442,214 441,215 441,218 440,219 440,221 439,222 439,224 438,225 438,226 437,227 437,228 435,230 435,231 429,237 428,237 427,238 426,238 425,239 415,239 414,238 412,238 411,237 410,237 409,236 408,236 406,234 405,234 398,227 398,226 396,224 396,222 395,221 395,220 394,219 394,214 393,213 393,209 394,208 394,203 393,203 392,202 391,202 390,201 388,201 387,200 386,200 385,199 384,199 383,198 382,198 381,197 380,197 379,196 378,196 377,195 376,195 375,194 374,194 373,193 372,193 371,192 371,194 372,195 372,196 373,197 373,198 374,199 374,201 375,202 375,203 376,204 376,205 377,206 377,208 378,209 378,210 379,211 379,212 380,213 380,214 381,215 381,216 382,217 382,219 383,220 383,221 384,222 384,223 385,224 385,225 386,226 386,228 387,229 387,230 388,231 388,232 389,233 389,234 390,235 390,237 391,238 391,239 392,240 392,241 393,242 393,243 394,244 394,246 395,247 395,248 396,249 396,250 397,251 397,252 398,253 398,255 399,256 399,257 400,258 400,259 401,260 401,261 402,262 402,264 403,265 403,266 404,267 404,268 405,269 409,269 410,268 412,268 413,267 416,267 417,266 420,266 421,265 425,265 426,264 429,264 430,263 435,263 436,262 440,262 441,261 448,261 449,260 454,260 455,259 464,259 465,258 477,258 478,257 501,257 502,256 531,256 532,257 548,257 549,258 561,258 562,259 569,259 570,260 577,260 578,261 583,261 584,262 588,262 589,263 593,263 594,264 598,264 599,265 603,265 604,266 606,266 607,267 610,267 611,268 614,268 615,269 618,269 619,268 619,267 620,266 620,265 621,264 621,262 622,261 622,260 623,259 623,258 624,257 624,256 625,255 625,254 626,253 626,251 627,250 627,249 628,248 628,247 629,246 629,245 630,244 630,242 631,241 631,240 632,239 632,238 633,237 633,236 634,235 634,233 635,232 635,231 636,230 636,229 637,228 637,227 638,226 638,225 639,224 639,222 640,221 640,220 641,219 641,218 642,217 642,216 643,215 643,213 644,212 644,211 645,210 645,209 646,208 646,207 647,206 647,204 648,203 648,202 649,201 649,200 650,199 650,198 651,197 651,195 652,194 652,193 653,192 652,192 651,193 650,193 649,194 648,194 647,195 646,195 645,196 644,196 643,197 642,197 641,198 640,198 639,199 638,199 637,200 636,200 635,201 633,201 632,202 631,202 630,203 629,203 629,206 630,207 630,215 629,216 629,219 628,220 628,222 627,223 627,224 625,226 625,227 618,234 617,234 615,236 614,236 613,237 612,237 611,238 609,238 608,239 598,239 597,238 595,238 587,230 587,229 586,228 586,227 585,226 585,225 584,224 584,222 583,221 583,219 582,218 582,215 581,214 581,208 580,207 580,193 582,191 584,191 585,190 586,190 589,187 589,186 590,185 590,178 589,177 589,176 587,174 586,174 585,173 584,173 583,172 577,172 576,173 575,173 572,176 572,177 571,178 571,185 572,186 572,187 575,190 576,190 577,191 577,192 576,193 576,194 575,195 575,196 574,197 574,198 572,200 572,201 570,203 570,204 567,207 567,208 563,212 563,213 557,219 556,219 553,222 552,222 551,223 550,223 549,224 542,224 541,223 540,223 539,222 538,222 535,219 535,218 532,215 532,214 530,212 530,211 529,210 529,209 528,208 528,207 527,206 527,205 526,204 526,202 525,201 525,200 524,199 524,197 523,196 523,194 522,193 522,191 521,190 521,188 520,187 520,184 519,183 519,181 518,180 518,177 517,176 517,173 516,172 516,168 515,167 515,163 514,162 514,159 515,158 517,158 518,157 519,157 523,153 523,152 524,151 524,149 525,148 525,145 524,144 524,142 523,141 523,140 518,135 517,135 516,134" fill="#d4af37"/>
</svg>